<svg width="18" height="18" viewBox="0 0 18 18" fill="none" xmlns="http://www.w3.org/2000/svg">
<path d="M1.5 3.16667C1.5 2.24619 2.24619 1.5 3.16667 1.5H5.89937C6.25806 1.5 6.57651 1.72953 6.68994 2.06981L7.93811 5.81434C8.06926 6.20777 7.89115 6.63776 7.52022 6.82322L5.63917 7.76375C6.55771 9.80101 8.19898 11.4423 10.2363 12.3608L11.1768 10.4798C11.3622 10.1088 11.7922 9.93074 12.1857 10.0619L15.9302 11.3101C16.2705 11.4235 16.5 11.7419 16.5 12.1006V14.8333C16.5 15.7538 15.7538 16.5 14.8333 16.5H14C7.09644 16.5 1.5 10.9036 1.5 4V3.16667Z" stroke="#6B7280" stroke-width="1.5" stroke-linecap="round" stroke-linejoin="round"/>
</svg>
